<?xml version="1.0" encoding="UTF-8"?>
<svg id="Layer_1" data-name="Layer 1" xmlns="http://www.w3.org/2000/svg" xmlns:xlink="http://www.w3.org/1999/xlink" viewBox="0 0 80 80">
  <defs>
    <style>
      .cls-1 {
        fill: url(#linear-gradient);
      }
    </style>
    <linearGradient id="linear-gradient" x1=".66" y1="39.46" x2="75.36" y2="40.21" gradientUnits="userSpaceOnUse">
      <stop offset="0" stop-color="#033254"/>
      <stop offset=".19" stop-color="#033e62"/>
      <stop offset=".6" stop-color="#03557b"/>
      <stop offset=".85" stop-color="#035e85"/>
    </linearGradient>
  </defs>
  <g id="_18_Single_Analysis" data-name="18 Single Analysis">
    <path class="cls-1" d="M72.93,75.51c-1.89,0-3.66-.74-4.99-2.08l-15.89-15.88c-.19-.19-.29-.43-.29-.7,0-.27.1-.52.29-.7s.44-.29.7-.29.51.1.7.29l15.89,15.89c.96.96,2.23,1.49,3.59,1.49s2.63-.53,3.59-1.49c.96-.96,1.49-2.24,1.49-3.6,0-1.35-.53-2.63-1.49-3.58l-15.89-15.89c-.39-.39-.39-1.02,0-1.4.19-.19.44-.29.7-.29s.52.1.7.29l15.88,15.89c1.33,1.33,2.07,3.1,2.07,4.99,0,1.89-.73,3.66-2.07,5-1.34,1.34-3.11,2.08-5,2.08ZM36.08,58.68c-7.25,0-14.06-2.82-19.17-7.93-4.33-4.33-7-9.84-7.72-15.93l-8.19-.04C.45,34.78,0,34.33,0,33.78s.45-.99.99-.99h8.07c-.38-7.62,2.5-15.03,7.84-20.37,5.12-5.11,11.92-7.93,19.17-7.93s14.05,2.81,19.16,7.92,7.93,11.92,7.93,19.17-2.82,14.06-7.93,19.17c-5.11,5.11-11.91,7.92-19.16,7.92ZM11.18,34.83c.72,5.55,3.18,10.57,7.13,14.52,4.74,4.74,11.05,7.35,17.77,7.35,6.72,0,13.02-2.61,17.76-7.34,9.8-9.8,9.8-25.74,0-35.53-4.73-4.73-11.04-7.34-17.75-7.34s-13.03,2.61-17.77,7.35c-4.97,4.97-7.64,11.87-7.32,18.92l7.82.04,3.69-9.04c.15-.37.51-.61.92-.61.46.02.83.3.95.71l4.69,16.11,6.62-20.26c.13-.39.5-.66.91-.68.43,0,.8.24.95.62l5.72,14.03,8.4-.03c.55,0,.99.44.99.99s-.45.99-.99.99h-9.08c-.4,0-.77-.24-.92-.62l-5-12.26-6.77,20.71c-.13.41-.51.68-.94.68-.45,0-.83-.29-.95-.71l-4.78-16.44-2.86,7.17c-.15.37-.51.61-.92.61h-8.27v.05Z"/>
  </g>
</svg>