<?xml version="1.0" encoding="UTF-8"?>
<svg id="Layer_1" data-name="Layer 1" xmlns="http://www.w3.org/2000/svg" xmlns:xlink="http://www.w3.org/1999/xlink" viewBox="0 0 80 80">
  <defs>
    <style>
      .cls-1 {
        fill: url(#linear-gradient-8);
      }

      .cls-2 {
        fill: url(#linear-gradient-7);
      }

      .cls-3 {
        fill: url(#linear-gradient-5);
      }

      .cls-4 {
        fill: url(#linear-gradient-6);
      }

      .cls-5 {
        fill: url(#linear-gradient-9);
      }

      .cls-6 {
        fill: url(#linear-gradient-4);
      }

      .cls-7 {
        fill: url(#linear-gradient-3);
      }

      .cls-8 {
        fill: url(#linear-gradient-2);
      }

      .cls-9 {
        fill: url(#linear-gradient);
      }

      .cls-10 {
        fill: url(#linear-gradient-10);
      }

      .cls-11 {
        fill: url(#linear-gradient-11);
      }

      .cls-12 {
        fill: url(#linear-gradient-12);
      }
    </style>
    <linearGradient id="linear-gradient" x1="2.67" y1="13.2" x2="72.52" y2="13.2" gradientUnits="userSpaceOnUse">
      <stop offset="0" stop-color="#033254"/>
      <stop offset=".19" stop-color="#033e62"/>
      <stop offset=".6" stop-color="#03557b"/>
      <stop offset=".85" stop-color="#035e85"/>
    </linearGradient>
    <linearGradient id="linear-gradient-2" y1="10.8" y2="10.8" xlink:href="#linear-gradient"/>
    <linearGradient id="linear-gradient-3" y1="15.59" y2="15.59" xlink:href="#linear-gradient"/>
    <linearGradient id="linear-gradient-4" y1="28.63" y2="28.63" xlink:href="#linear-gradient"/>
    <linearGradient id="linear-gradient-5" y1="26.24" y2="26.24" xlink:href="#linear-gradient"/>
    <linearGradient id="linear-gradient-6" y1="31.03" y2="31.03" xlink:href="#linear-gradient"/>
    <linearGradient id="linear-gradient-7" y1="44.07" y2="44.07" xlink:href="#linear-gradient"/>
    <linearGradient id="linear-gradient-8" y1="59.52" y2="59.52" xlink:href="#linear-gradient"/>
    <linearGradient id="linear-gradient-9" y1="51.6" y2="51.6" xlink:href="#linear-gradient"/>
    <linearGradient id="linear-gradient-10" y1="56.79" y2="56.79" xlink:href="#linear-gradient"/>
    <linearGradient id="linear-gradient-11" y1="40" y2="40" xlink:href="#linear-gradient"/>
    <linearGradient id="linear-gradient-12" y1="51.6" y2="51.6" xlink:href="#linear-gradient"/>
  </defs>
  <path class="cls-9" d="M15,19c-1.25,0-2.27-1.02-2.27-2.27v-7.06c0-1.25,1.02-2.27,2.27-2.27h7.06c1.25,0,2.27,1.02,2.27,2.27v7.06c0,1.25-1.02,2.27-2.27,2.27h-7.06ZM15,9.41c-.14,0-.26.12-.26.26v7.06c0,.14.12.26.26.26h7.06c.14,0,.26-.12.26-.26v-7.06c0-.14-.12-.26-.26-.26h-7.06Z"/>
  <path class="cls-8" d="M31.18,11.81c-.56,0-1.01-.45-1.01-1.01s.45-1.01,1.01-1.01h16.33c.57,0,1.01.44,1.01,1.01s-.45,1.01-1.01,1.01h-16.33Z"/>
  <path class="cls-7" d="M31.18,16.6c-.57,0-1.01-.44-1.01-1.01s.45-1.01,1.01-1.01h22.09c.56,0,1.01.45,1.01,1.01s-.44,1-1.01,1.01h-22.09Z"/>
  <path class="cls-6" d="M15,34.43c-1.25,0-2.27-1.02-2.27-2.27v-7.06c0-1.25,1.02-2.27,2.27-2.27h7.06c1.25,0,2.27,1.02,2.27,2.27v7.06c0,1.25-1.02,2.27-2.27,2.27h-7.06ZM15,24.85c-.14,0-.26.12-.26.26v7.06c0,.14.12.26.26.26h7.06c.14,0,.26-.12.26-.26v-7.06c0-.14-.12-.26-.26-.26h-7.06Z"/>
  <path class="cls-3" d="M31.18,27.25c-.57,0-1.01-.44-1.01-1.01s.45-1.01,1.01-1.01h16.33c.56,0,1.01.45,1.01,1.01s-.44,1.01-1.01,1.01h-16.33Z"/>
  <path class="cls-4" d="M31.18,32.04c-.57,0-1.01-.44-1.01-1.01s.45-1.01,1.01-1.01h13.02c.57,0,1.01.44,1.01,1.01s-.45,1.01-1.01,1.01h-13.02Z"/>
  <path class="cls-2" d="M15,49.87c-1.25,0-2.27-1.02-2.27-2.27v-7.06c0-1.25,1.02-2.27,2.27-2.27h7.06c1.25,0,2.27,1.02,2.27,2.27v7.06c0,1.25-1.02,2.27-2.27,2.27h-7.06ZM15,40.28c-.14,0-.26.12-.26.26v7.06c0,.14.12.26.26.26h7.06c.14,0,.26-.12.26-.26v-7.06c0-.14-.12-.26-.26-.26h-7.06Z"/>
  <path class="cls-1" d="M15.01,65.32c-1.25,0-2.27-1.02-2.27-2.27v-7.06c0-1.25,1.02-2.27,2.27-2.27h7.06c1.24,0,2.26,1.01,2.27,2.26v7.07c0,1.25-1.02,2.27-2.27,2.27h-7.06ZM15,55.72c-.14,0-.26.12-.26.26v7.06c0,.14.12.26.26.26h7.06c.14,0,.26-.12.26-.26v-7.06c0-.14-.12-.26-.26-.26h-7.06Z"/>
  <path class="cls-5" d="M51.76,64.44c-3.43,0-6.65-1.34-9.08-3.76-2.42-2.42-3.76-5.65-3.76-9.08s1.33-6.66,3.76-9.08,5.65-3.76,9.08-3.76,6.65,1.34,9.08,3.76c5.01,5.01,5.01,13.15,0,18.16-2.42,2.42-5.65,3.76-9.08,3.76ZM51.76,40.76c-2.89,0-5.61,1.13-7.65,3.17-2.04,2.04-3.17,4.76-3.17,7.66s1.13,5.62,3.17,7.66c2.05,2.05,4.76,3.17,7.65,3.17s5.61-1.13,7.65-3.17c2.04-2.04,3.17-4.76,3.17-7.66s-1.13-5.62-3.17-7.66c-2.05-2.05-4.76-3.17-7.65-3.17Z"/>
  <path class="cls-10" d="M75.83,79.85c-1.12,0-2.17-.43-2.95-1.22l-8.21-8.21-.14.14c-.58.58-1.39.92-2.21.92-.2,0-.4-.02-.6-.06-1.03-.2-1.88-.89-2.28-1.84l-.65-1.55-.09.04c-2.23.93-4.56,1.4-6.93,1.4-4.78,0-9.27-1.86-12.64-5.23-3.37-3.37-5.23-7.86-5.23-12.64s1.86-9.27,5.23-12.64c3.37-3.37,7.86-5.23,12.64-5.23s9.27,1.86,12.64,5.23c5.15,5.15,6.66,12.84,3.83,19.57l-.04.09,1.55.65c.96.41,1.65,1.26,1.84,2.28.19,1.02-.13,2.07-.87,2.81l-.14.14,8.21,8.21c1.63,1.62,1.63,4.28,0,5.92-.78.78-1.83,1.22-2.95,1.22ZM66.1,68.99l8.21,8.21c.41.41.95.63,1.53.63s1.12-.22,1.53-.63.63-.95.63-1.53-.22-1.12-.63-1.53l-8.21-8.21-3.05,3.05ZM67.23,60.5c-.79,1.39-1.75,2.65-2.84,3.74-1.09,1.09-2.35,2.05-3.74,2.84l-.07.04.71,1.66c.15.35.46.59.83.66.07.01.14.02.22.02.3,0,.58-.11.79-.32l6.18-6.18c.26-.26.37-.63.3-1-.07-.37-.31-.67-.66-.83l-1.66-.71-.04.07ZM51.76,35.75c-4.24,0-8.23,1.65-11.21,4.63-2.99,2.99-4.64,6.97-4.64,11.21s1.65,8.23,4.64,11.22c2.99,2.99,6.98,4.64,11.22,4.64s8.22-1.65,11.21-4.64c2.99-2.99,4.64-6.96,4.64-11.2,0-4.24-1.65-8.23-4.64-11.23-2.99-2.99-6.97-4.63-11.21-4.63Z"/>
  <path class="cls-11" d="M6.04,79.85C2.71,79.85,0,77.14,0,73.8V11.24C0,8.28,2.13,5.78,5.05,5.28h.07s.01-.08.01-.08C5.61,2.28,8.11.15,11.06.15h44.91c3.33,0,6.04,2.71,6.04,6.04v25.55c0,.57-.44,1.01-1.01,1.01s-1.01-.45-1.01-1.01V6.2c0-2.22-1.81-4.03-4.03-4.03H11.06c-2.22,0-4.03,1.81-4.03,4.03v62.56c0,2.22,1.81,4.03,4.03,4.03h46.16c.57,0,1.04.45,1.04,1.01s-.45,1.01-1.01,1.01h-.36v.08c-.55,2.87-3.04,4.95-5.95,4.95H6.04ZM4.9,7.39c-1.71.5-2.9,2.09-2.9,3.85v62.55c0,2.22,1.81,4.03,4.03,4.03h44.9c1.79,0,3.33-1.17,3.84-2.9l.04-.12H11.06c-3.33,0-6.04-2.71-6.04-6.04V7.35l-.12.04Z"/>
  <path class="cls-12" d="M49.46,56.4c-.27,0-.52-.11-.71-.3l-2.96-2.96c-.39-.39-.39-1.03,0-1.42.19-.19.44-.29.71-.29s.52.1.71.29l2.24,2.24,6.86-6.86c.19-.19.44-.29.71-.29s.52.1.71.29c.39.39.39,1.03,0,1.42l-7.57,7.57c-.19.19-.45.3-.71.3Z"/>
</svg>