<?xml version="1.0" encoding="UTF-8"?>
<svg id="Layer_1" data-name="Layer 1" xmlns="http://www.w3.org/2000/svg" xmlns:xlink="http://www.w3.org/1999/xlink" viewBox="0 0 80 80">
  <defs>
    <style>
      .cls-1 {
        fill: url(#linear-gradient-2);
      }

      .cls-2 {
        fill: url(#linear-gradient);
      }
    </style>
    <linearGradient id="linear-gradient" x1="13.88" y1="62.77" x2="57.95" y2="63.14" gradientUnits="userSpaceOnUse">
      <stop offset="0" stop-color="#033254"/>
      <stop offset=".19" stop-color="#033e62"/>
      <stop offset=".6" stop-color="#03557b"/>
      <stop offset=".85" stop-color="#035e85"/>
    </linearGradient>
    <linearGradient id="linear-gradient-2" x1="14.23" y1="21.39" x2="58.31" y2="21.77" xlink:href="#linear-gradient"/>
  </defs>
  <g id="_28_Success" data-name="28 Success">
    <g>
      <path class="cls-2" d="M11.14,80c-3.56,0-6.45-2.9-6.45-6.45v-17.36c0-3.56,2.89-6.45,6.45-6.45h5.77c2.88,0,5.39,1.89,6.19,4.64,1.98-2.79,4.95-4.86,8.17-5.7,1.14-.3,2.34-.45,3.55-.45,3.24,0,6.4,1.06,8.91,2.98.41-.04.9-.05,1.38-.05.57,0,1.13,0,1.68.01.54,0,1.07.01,1.59.01.28,0,.56,0,.84,0,2.54,0,4.16,1.74,4.68,3.52,4.46-1.76,8.35-4.3,11.26-7.37.83-.87,1.93-1.35,3.1-1.35.76,0,1.52.21,2.17.62,1.85,1.13,2.57,3.46,1.66,5.4-6.82,14.6-18.89,20.01-27.8,21.98-3.55.78-7.49,1.2-11.4,1.2h0c-3.56,0-6.95-.35-9.57-.98-.32,3.27-3.11,5.82-6.42,5.82h-5.77ZM11.14,51.66c-2.5,0-4.53,2.03-4.53,4.53v17.36c0,2.5,2.03,4.53,4.53,4.53h5.77c2.5,0,4.53-2.03,4.53-4.53v-17.36c0-2.5-2.03-4.53-4.53-4.53h-5.77ZM23.36,72.21c1.84.49,5.27,1,9.52,1,10.15,0,28.51-2.86,37.48-22.03.49-1.05.12-2.3-.87-2.91-.38-.23-.8-.35-1.23-.35-.64,0-1.24.26-1.7.74-3.23,3.4-7.55,6.18-12.49,8.04-.22,1.73-1.29,3.07-2.96,3.69-2.19.81-5.44,1.09-9.94,1.48-.81.07-2.54.22-2.55.22-.58,0-.99-.38-1.04-.87-.05-.53.34-1,.87-1.05.88-.08,1.72-.15,2.54-.22,4.17-.36,7.47-.64,9.45-1.37,1.56-.58,1.89-2.01,1.69-3.07-.23-1.2-1.19-2.41-2.83-2.41-.34,0-.62,0-.9,0-.58,0-1.14,0-1.7-.01-.55,0-1.08-.01-1.62-.01s-1.12,0-1.67.03h0c-.26,0-.46-.08-.63-.21-2.21-1.78-5.03-2.75-7.94-2.75-1.05,0-2.08.13-3.07.39-3.71.97-6.92,3.77-8.4,7.32v14.35Z"/>
      <path class="cls-1" d="M49.16,43.38c-11.96,0-21.69-9.73-21.69-21.69S37.2,0,49.16,0c6.35,0,12.35,2.78,16.5,7.64l3.23-3.23c.71-.71,1.66-1.1,2.67-1.1s1.95.39,2.67,1.1c1.47,1.47,1.47,3.86,0,5.33l-4.65,4.65c.85,2.36,1.28,4.82,1.28,7.3,0,11.96-9.73,21.69-21.69,21.69ZM49.16,1.93c-10.9,0-19.76,8.87-19.76,19.76s8.87,19.76,19.76,19.76,19.76-8.87,19.76-19.76c0-1.92-.3-3.86-.88-5.77l-16.45,16.45c-.71.71-1.66,1.1-2.67,1.1s-1.95-.39-2.67-1.1l-6.5-6.5c-.71-.71-1.1-1.66-1.1-2.67s.39-1.95,1.1-2.67c.71-.71,1.66-1.1,2.67-1.1s1.95.39,2.67,1.1l3.84,3.84,15.36-15.36c-3.78-4.5-9.29-7.08-15.13-7.08ZM42.42,21.35c-.49,0-.95.19-1.3.54-.72.72-.72,1.89,0,2.61l6.5,6.5c.35.35.81.54,1.3.54s.95-.19,1.3-.54l22.62-22.62c.72-.72.72-1.89,0-2.61-.35-.35-.81-.54-1.3-.54s-.96.19-1.3.54l-20.64,20.64c-.18.18-.42.28-.68.28s-.5-.1-.68-.28l-4.52-4.52c-.35-.35-.81-.54-1.3-.54Z"/>
    </g>
  </g>
</svg>