<?xml version="1.0" encoding="UTF-8"?>
<svg id="Layer_1" data-name="Layer 1" xmlns="http://www.w3.org/2000/svg" xmlns:xlink="http://www.w3.org/1999/xlink" viewBox="0 0 32 32">
  <defs>
    <style>
      .cls-1 {
        fill: url(#linear-gradient-3);
      }

      .cls-2 {
        fill: url(#linear-gradient-2);
      }

      .cls-3 {
        fill: url(#linear-gradient);
      }
    </style>
    <linearGradient id="linear-gradient" x1="-12.73" y1="6.19" x2="30.97" y2="6.19" gradientUnits="userSpaceOnUse">
      <stop offset="0" stop-color="#033254"/>
      <stop offset=".19" stop-color="#033e62"/>
      <stop offset=".6" stop-color="#03557b"/>
      <stop offset=".85" stop-color="#035e85"/>
    </linearGradient>
    <linearGradient id="linear-gradient-2" x1="1.03" y1="5.99" x2="30.82" y2="5.99" xlink:href="#linear-gradient"/>
    <linearGradient id="linear-gradient-3" x1="1.03" y1="22.23" x2="30.82" y2="22.23" xlink:href="#linear-gradient"/>
  </defs>
  <path class="cls-3" d="M15.97,11.68c3.03,0,5.49-2.46,5.49-5.49S19,.7,15.97.7s-5.49,2.46-5.49,5.49,2.46,5.49,5.49,5.49ZM15.97,1.73c2.46,0,4.46,2,4.46,4.46s-2,4.46-4.46,4.46-4.46-2-4.46-4.46S13.51,1.73,15.97,1.73Z"/>
  <g>
    <path class="cls-2" d="M15.97,11.98c-3.3,0-5.99-2.69-5.99-5.99S12.67,0,15.97,0s5.99,2.69,5.99,5.99-2.69,5.99-5.99,5.99ZM15.97,2.03c-2.19,0-3.96,1.78-3.96,3.96s1.78,3.96,3.96,3.96,3.96-1.78,3.96-3.96-1.78-3.96-3.96-3.96Z"/>
    <path class="cls-1" d="M19.03,32c-.22,0-.44-.04-.64-.11l-2.46-.88-2.37.88c-.21.07-.43.11-.65.11-.4,0-.79-.13-1.12-.36-.51-.37-.8-.97-.78-1.6l.08-2.61-1.57-1.98c-.05-.06-.09-.12-.13-.19-.02.04-.05.07-.07.1l-.75.97.02,1.3c.02.53-.24,1.05-.68,1.37-.28.21-.62.31-.96.31-.19,0-.38-.03-.55-.09l-1.16-.42-1.24.42c-.17.06-.36.09-.55.09-.35,0-.68-.11-.97-.31-.44-.32-.69-.84-.68-1.38l.04-1.23-.78-1.04c-.33-.42-.43-.99-.26-1.51.17-.52.58-.92,1.1-1.07l1.24-.38.69-1.02c.31-.45.81-.72,1.36-.72.11,0,.22.01.32.03,1.42-4.88,5.64-8.24,10.44-8.24s9.01,3.36,10.44,8.25c.13-.03.25-.05.38-.05.54,0,1.05.27,1.36.72l.69,1.02,1.25.39c.51.15.93.55,1.1,1.07.17.52.07,1.08-.26,1.51l-.75.97.02,1.3c.02.54-.24,1.05-.68,1.37-.28.21-.62.31-.96.31-.19,0-.38-.03-.55-.09l-1.16-.42-1.24.42c-.17.06-.36.09-.55.09-.35,0-.68-.11-.97-.31-.44-.32-.69-.83-.68-1.38l.04-1.23-.78-1.04s-.05-.06-.07-.1h-.05c-.04.07-.08.14-.13.2l-1.6,2.06.11,2.53c.02.63-.27,1.23-.78,1.6-.33.24-.71.36-1.12.36ZM15.97,28.98c.22,0,.44.04.64.11l2.28.82-.08-2.42c-.01-.44.13-.87.4-1.22l1.49-1.91-2.33-.67c-.42-.12-.79-.39-1.04-.76l-1.36-2-1.36,2c-.12.17-.27.33-.45.46-.16.12-.32.18-.46.24,0,0-.05.03-.12.06l-2.33.68,1.49,1.91c.27.35.41.78.4,1.22l-.08,2.42,2.28-.82c.21-.07.42-.11.64-.11ZM26.8,26.74c.19,0,.38.03.56.1l.79.28-.03-.84c-.01-.38.11-.75.34-1.06l.52-.66-.81-.23c-.37-.11-.69-.34-.9-.66l-.47-.69-.47.7c-.21.31-.53.54-.9.65l-.81.24.51.66c.23.3.36.68.34,1.06l-.03.84.79-.28c.18-.06.37-.1.56-.1ZM5.21,26.74c.19,0,.38.03.56.1l.79.28-.03-.84c-.01-.38.11-.75.34-1.06l.52-.67-.81-.23c-.15-.05-.3-.11-.44-.2h-.02s-.06-.05-.06-.05c-.15-.1-.28-.24-.39-.4l-.47-.69-.47.7c-.21.31-.53.54-.9.65l-.81.24.51.66c.24.3.36.68.34,1.06l-.03.84.79-.29c.18-.06.37-.1.56-.1ZM20.88,24.41l-.08-.02h-.03s.11.02.11.02ZM22.78,23.23c.05-.06.12-.11.18-.16.23-.17.39-.24.55-.29l1.21-.38v-.02c-.79-4.52-4.52-7.91-8.75-7.91s-7.93,3.29-8.76,7.86l.04.06,1.26.39.13.06c.06.01.18.08.3.15.05.03.1.07.15.11.04.04.09.08.13.12h.24c.09-.13.19-.25.31-.36l.09-.07c.11-.08.17-.13.24-.17.13-.08.27-.13.41-.17l2.5-.73,1.4-2.11c.35-.52.94-.83,1.57-.83.38,0,.75.12,1.08.35.21.15.37.3.49.48l1.46,2.16,2.44.68c.14.04.27.1.41.17.06.04.13.08.19.13.08.06.12.09.15.11.11.1.21.22.3.35h.3Z"/>
  </g>
</svg>