<?xml version="1.0" encoding="UTF-8"?>
<svg id="Layer_1" data-name="Layer 1" xmlns="http://www.w3.org/2000/svg" xmlns:xlink="http://www.w3.org/1999/xlink" viewBox="0 0 32 32">
  <defs>
    <style>
      .cls-1 {
        fill: url(#linear-gradient);
      }
    </style>
    <linearGradient id="linear-gradient" x1=".87" y1="16" x2="29.16" y2="16" gradientUnits="userSpaceOnUse">
      <stop offset="0" stop-color="#033254"/>
      <stop offset=".19" stop-color="#033e62"/>
      <stop offset=".6" stop-color="#03557b"/>
      <stop offset=".85" stop-color="#035e85"/>
    </linearGradient>
  </defs>
  <path class="cls-1" d="M14.53,30.54C6.52,30.54,0,24.01,0,16S6.52,1.47,14.53,1.47c4.14,0,8.06,1.77,10.83,4.86l1.88-1.88c.53-.53,1.23-.82,1.97-.82s1.44.29,1.97.82c1.08,1.09,1.08,2.85,0,3.94l-2.91,2.91c.52,1.52.79,3.1.79,4.7,0,8.01-6.52,14.54-14.53,14.54ZM14.53,3.36C7.56,3.36,1.89,9.03,1.89,16s5.67,12.64,12.64,12.64,12.64-5.67,12.64-12.64c0-1.06-.14-2.13-.42-3.18l-10.4,10.4c-.53.52-1.23.81-1.97.81s-1.44-.29-1.97-.81l-4.26-4.26c-1.09-1.09-1.09-2.85,0-3.94.53-.53,1.23-.82,1.97-.82s1.44.29,1.97.82l2.29,2.29,9.64-9.64c-2.41-2.74-5.85-4.31-9.49-4.31ZM10.12,16.1c-.24,0-.46.09-.63.26-.35.35-.35.91,0,1.26l4.26,4.26c.17.17.39.26.63.26s.46-.09.63-.26l14.83-14.83c.35-.35.35-.91,0-1.26-.17-.17-.39-.26-.63-.26s-.46.09-.63.26l-13.53,13.53c-.18.18-.42.28-.67.28s-.49-.1-.67-.28l-2.96-2.96c-.17-.17-.39-.26-.63-.26Z"/>
</svg>