<?xml version="1.0" encoding="UTF-8"?>
<svg id="Layer_1" data-name="Layer 1" xmlns="http://www.w3.org/2000/svg" xmlns:xlink="http://www.w3.org/1999/xlink" viewBox="0 0 32 32">
  <defs>
    <style>
      .cls-1 {
        fill: url(#linear-gradient);
      }
    </style>
    <linearGradient id="linear-gradient" x1="0" y1="16" x2="32" y2="16" gradientUnits="userSpaceOnUse">
      <stop offset="0" stop-color="#033254"/>
      <stop offset=".19" stop-color="#033e62"/>
      <stop offset=".6" stop-color="#03557b"/>
      <stop offset=".85" stop-color="#035e85"/>
    </linearGradient>
  </defs>
  <path class="cls-1" d="M31.07,26.56l-5.33-5.33c.48-.57.68-1.32.54-2.06-.15-.81-.7-1.48-1.46-1.81l-.73-.31c1.83-4.64.75-9.87-2.78-13.4C18.95,1.3,15.82,0,12.48,0S6.01,1.3,3.65,3.65c-4.87,4.87-4.87,12.78,0,17.65,2.36,2.36,5.49,3.65,8.83,3.65,1.57,0,3.1-.29,4.58-.87l.31.73c.32.76.99,1.3,1.81,1.46.15.03.32.05.47.05.56,0,1.12-.2,1.59-.58l5.33,5.33c.6.6,1.4.93,2.25.93s1.65-.33,2.25-.93c1.24-1.25,1.24-3.27,0-4.51ZM12.48,22.89c-2.79,0-5.4-1.08-7.37-3.05-1.53-1.53-2.51-3.44-2.88-5.53h2.84c.38,0,.72-.23.87-.58l.66-1.6,1.59,5.45c.11.4.47.67.9.68.41,0,.76-.26.89-.64l2.44-7.35,1.55,3.81c.14.36.48.59.87.59h3.83c.52,0,.94-.42.94-.94s-.42-.94-.94-.94h-3.2l-2.28-5.58c-.14-.35-.48-.58-.9-.58h0c-.39.01-.74.27-.86.64l-2.29,6.9-1.49-5.13c-.11-.38-.45-.65-.9-.68-.38,0-.72.23-.87.58l-1.44,3.49h-2.38c0-2.77,1.09-5.38,3.05-7.33,1.96-1.96,4.58-3.04,7.37-3.04s5.4,1.08,7.37,3.04c1.97,1.97,3.05,4.58,3.05,7.37s-1.08,5.4-3.05,7.36c-1.96,1.97-4.58,3.05-7.36,3.05ZM19.94,24.14c-.07.07-.16.11-.33.11-.01,0-.03,0-.04,0-.14-.02-.25-.11-.3-.24l-.36-.84c.88-.53,1.69-1.15,2.39-1.86.71-.71,1.33-1.51,1.86-2.39l.84.36c.09.04.21.13.25.3.03.14-.01.28-.11.37l-4.19,4.19ZM29.61,29.6c-.21.21-.49.33-.79.33s-.58-.12-.79-.33l-5.32-5.32,1.58-1.58,5.32,5.33c.44.44.44,1.14,0,1.58Z"/>
</svg>