<?xml version="1.0" encoding="UTF-8"?>
<svg id="Layer_2" data-name="Layer 2" xmlns="http://www.w3.org/2000/svg" xmlns:xlink="http://www.w3.org/1999/xlink" viewBox="0 0 84 83.68">
  <defs>
    <style>
      .cls-1 {
        fill: url(#linear-gradient-8);
      }

      .cls-2 {
        fill: url(#linear-gradient-7);
      }

      .cls-3 {
        fill: url(#linear-gradient-5);
      }

      .cls-4 {
        fill: url(#linear-gradient-6);
      }

      .cls-5 {
        fill: url(#linear-gradient-9);
      }

      .cls-6 {
        fill: url(#linear-gradient-4);
      }

      .cls-7 {
        fill: url(#linear-gradient-3);
      }

      .cls-8 {
        fill: url(#linear-gradient-2);
      }

      .cls-9 {
        fill: url(#linear-gradient);
      }

      .cls-10 {
        fill: url(#linear-gradient-10);
      }

      .cls-11 {
        fill: url(#linear-gradient-11);
      }

      .cls-12 {
        fill: url(#linear-gradient-12);
      }
    </style>
    <linearGradient id="linear-gradient" x1="-4.37" y1="13.7" x2="111.22" y2="13.7" gradientUnits="userSpaceOnUse">
      <stop offset="0" stop-color="#3a587c"/>
      <stop offset=".32" stop-color="#306e9b"/>
      <stop offset=".65" stop-color="#2881b4"/>
      <stop offset=".85" stop-color="#2688be"/>
    </linearGradient>
    <linearGradient id="linear-gradient-2" x1="-4.29" y1="11.18" x2="112" y2="11.18" xlink:href="#linear-gradient"/>
    <linearGradient id="linear-gradient-3" x1="-4.38" y1="16.21" x2="112.2" y2="16.21" xlink:href="#linear-gradient"/>
    <linearGradient id="linear-gradient-4" y1="29.91" y2="29.91" xlink:href="#linear-gradient"/>
    <linearGradient id="linear-gradient-5" x1="-4.29" y1="27.39" x2="112" y2="27.39" xlink:href="#linear-gradient"/>
    <linearGradient id="linear-gradient-6" x1="-4.21" y1="32.42" x2="111.82" y2="32.42" xlink:href="#linear-gradient"/>
    <linearGradient id="linear-gradient-7" y1="46.11" y2="46.11" xlink:href="#linear-gradient"/>
    <linearGradient id="linear-gradient-8" x1="-4.37" y1="62.34" x2="111.22" y2="62.34" xlink:href="#linear-gradient"/>
    <linearGradient id="linear-gradient-9" x1="-4.32" y1="54.02" x2="112.3" y2="54.02" xlink:href="#linear-gradient"/>
    <linearGradient id="linear-gradient-10" x1="-4.5" y1="59.47" x2="112.52" y2="59.47" xlink:href="#linear-gradient"/>
    <linearGradient id="linear-gradient-11" x1="-4.65" y1="41.84" x2="112.49" y2="41.84" xlink:href="#linear-gradient"/>
    <linearGradient id="linear-gradient-12" x1="-3.89" y1="54.02" x2="111.88" y2="54.02" xlink:href="#linear-gradient"/>
  </defs>
  <g id="Layer_1-2" data-name="Layer 1">
    <g>
      <path class="cls-9" d="M15.75,19.79c-1.31,0-2.38-1.07-2.38-2.38v-7.41c0-1.31,1.07-2.38,2.38-2.38h7.41c1.31,0,2.38,1.07,2.38,2.38v7.41c0,1.31-1.07,2.38-2.38,2.38h-7.41ZM15.75,9.72c-.15,0-.27.12-.27.27v7.41c0,.15.12.27.27.27h7.41c.15,0,.27-.12.27-.27v-7.41c0-.15-.12-.27-.27-.27h-7.41Z"/>
      <path class="cls-8" d="M32.74,12.24c-.59,0-1.06-.48-1.06-1.06s.48-1.06,1.06-1.06h17.15c.6,0,1.06.47,1.06,1.06s-.48,1.06-1.06,1.06h-17.15Z"/>
      <path class="cls-7" d="M32.74,17.28c-.6,0-1.06-.47-1.06-1.06s.48-1.06,1.06-1.06h23.2c.59,0,1.06.48,1.06,1.06s-.47,1.05-1.06,1.06h-23.2Z"/>
      <path class="cls-6" d="M15.75,35.99c-1.31,0-2.38-1.07-2.38-2.38v-7.41c0-1.31,1.07-2.38,2.38-2.38h7.41c1.31,0,2.38,1.07,2.38,2.38v7.41c0,1.31-1.07,2.38-2.38,2.38h-7.41ZM15.75,25.93c-.15,0-.27.12-.27.27v7.41c0,.15.12.27.27.27h7.41c.15,0,.27-.12.27-.27v-7.41c0-.15-.12-.27-.27-.27h-7.41Z"/>
      <path class="cls-3" d="M32.74,28.45c-.6,0-1.06-.47-1.06-1.06s.48-1.06,1.06-1.06h17.15c.59,0,1.06.48,1.06,1.06s-.47,1.06-1.06,1.06h-17.15Z"/>
      <path class="cls-4" d="M32.74,33.48c-.6,0-1.06-.47-1.06-1.06s.48-1.06,1.06-1.06h13.67c.6,0,1.06.47,1.06,1.06s-.48,1.06-1.06,1.06h-13.67Z"/>
      <path class="cls-2" d="M15.75,52.2c-1.31,0-2.38-1.07-2.38-2.38v-7.41c0-1.31,1.07-2.38,2.38-2.38h7.41c1.31,0,2.38,1.07,2.38,2.38v7.41c0,1.31-1.07,2.38-2.38,2.38h-7.41ZM15.75,42.14c-.15,0-.27.12-.27.27v7.41c0,.15.12.27.27.27h7.41c.15,0,.27-.12.27-.27v-7.41c0-.15-.12-.27-.27-.27h-7.41Z"/>
      <path class="cls-1" d="M15.76,68.42c-1.31,0-2.38-1.07-2.38-2.38v-7.41c0-1.31,1.07-2.38,2.38-2.38h7.41c1.3,0,2.37,1.06,2.38,2.37v7.42c0,1.31-1.07,2.38-2.38,2.38h-7.41ZM15.75,58.34c-.15,0-.27.12-.27.27v7.41c0,.15.12.27.27.27h7.41c.15,0,.27-.12.27-.27v-7.41c0-.15-.12-.27-.27-.27h-7.41Z"/>
      <path class="cls-5" d="M54.35,67.5c-3.6,0-6.99-1.4-9.53-3.95s-3.94-5.93-3.94-9.53,1.4-6.99,3.94-9.53,5.93-3.95,9.53-3.95,6.99,1.4,9.53,3.95c5.26,5.26,5.26,13.81,0,19.07-2.55,2.55-5.93,3.95-9.53,3.95ZM54.35,42.64c-3.03,0-5.89,1.18-8.04,3.33-2.15,2.15-3.33,5-3.33,8.04s1.18,5.9,3.33,8.04c2.15,2.15,5,3.33,8.04,3.33s5.89-1.18,8.04-3.33c2.15-2.15,3.33-5,3.33-8.04s-1.18-5.9-3.33-8.04c-2.15-2.15-5-3.33-8.04-3.33Z"/>
      <path class="cls-10" d="M79.62,83.68c-1.17,0-2.28-.45-3.1-1.28l-8.62-8.62-.15.15c-.61.61-1.46.96-2.32.96-.21,0-.42-.03-.63-.06-1.08-.21-1.98-.93-2.4-1.93l-.69-1.62-.09.04c-2.34.98-4.79,1.47-7.28,1.47-5.02,0-9.73-1.95-13.27-5.49-3.54-3.54-5.49-8.25-5.49-13.27s1.95-9.73,5.49-13.27,8.25-5.49,13.27-5.49,9.73,1.95,13.27,5.49c5.41,5.41,6.99,13.48,4.02,20.55l-.04.09,1.62.69c1.01.43,1.73,1.32,1.94,2.4.2,1.07-.14,2.17-.91,2.95l-.15.15,8.62,8.62c1.71,1.71,1.71,4.49,0,6.21-.82.82-1.92,1.28-3.1,1.28ZM69.4,72.28l8.62,8.62c.43.43,1,.66,1.6.66s1.18-.24,1.6-.66.66-1,.66-1.6-.24-1.18-.66-1.6l-8.62-8.62-3.21,3.21ZM70.59,63.36c-.83,1.46-1.84,2.78-2.98,3.93-1.15,1.15-2.47,2.15-3.93,2.98l-.08.04.75,1.75c.16.36.48.62.87.69.08.01.15.02.23.02.31,0,.61-.12.83-.34l6.49-6.49c.27-.27.39-.67.32-1.05-.07-.39-.32-.7-.69-.87l-1.75-.75-.04.08ZM54.35,37.38c-4.46,0-8.64,1.73-11.77,4.86-3.14,3.14-4.87,7.32-4.87,11.77s1.73,8.64,4.87,11.78c3.14,3.14,7.33,4.87,11.78,4.87s8.63-1.73,11.77-4.87c3.14-3.13,4.87-7.31,4.87-11.76,0-4.46-1.73-8.64-4.87-11.79-3.14-3.14-7.32-4.86-11.77-4.86Z"/>
      <path class="cls-11" d="M6.35,83.68c-3.5,0-6.35-2.85-6.35-6.35V11.64c0-3.11,2.23-5.74,5.31-6.26h.07s.01-.08.01-.08c.51-3.07,3.13-5.31,6.23-5.31h47.16c3.5,0,6.35,2.85,6.35,6.35v26.83c0,.6-.47,1.06-1.06,1.06s-1.06-.48-1.06-1.06V6.35c0-2.34-1.9-4.24-4.24-4.24H11.62c-2.34,0-4.24,1.9-4.24,4.24v65.69c0,2.34,1.9,4.24,4.24,4.24h48.47c.6,0,1.09.48,1.09,1.06s-.48,1.06-1.06,1.06h-.37l-.02.08c-.56,3.01-3.18,5.2-6.23,5.2H6.35ZM5.14,7.6c-1.79.53-3.04,2.19-3.04,4.05v65.68c0,2.34,1.9,4.24,4.24,4.24h47.15c1.88,0,3.5-1.22,4.03-3.04l.04-.13H11.62c-3.5,0-6.35-2.85-6.35-6.35V7.56l-.13.04Z"/>
      <path class="cls-12" d="M51.93,59.06c-.28,0-.55-.11-.75-.31l-3.1-3.1c-.41-.41-.41-1.08,0-1.5.2-.2.46-.31.75-.31s.55.11.75.31l2.36,2.36,7.2-7.2c.2-.2.46-.31.75-.31s.55.11.75.31c.41.41.41,1.08,0,1.5l-7.95,7.95c-.2.2-.47.31-.75.31Z"/>
    </g>
  </g>
</svg>