<?xml version="1.0" encoding="UTF-8"?>
<svg id="Layer_2" data-name="Layer 2" xmlns="http://www.w3.org/2000/svg" viewBox="0 0 257.46 48">
  <defs>
    <style>
      .cls-1 {fill: #f8fdff;}
      .cls-2 {fill: #26c5f3;}
    </style>
  </defs>
  <g id="Layer_1-2" data-name="Layer 1">
    <g>
      <path class="cls-1" d="M15.91,37.06c-.18.07-.37.13-.56.18-1.33.35-2.23-1-2.23-2.23h0c0-.25.13-.48.34-.61,3.88-2.36,7.5-5.63,8.67-6.63,1-.85,1.6-1.96,1.81-3.13.06-.31.06-.62,0-.93-.21-1.17-.81-2.28-1.81-3.13-1.17-1-4.79-4.27-8.67-6.63-.21-.13-.34-.36-.34-.61h0c0-1.24.91-2.58,2.23-2.23.19.05.38.11.56.18,1.83.52,7.56,2.06,11.69,2.06,3.62,0,8.49-1.18,10.86-1.83-.83-5.6-2.2-9.33-4.54-10.67C25.3-4.05,7.06,13.43,3.34,16.58c-4.51,3.83-4.4,10.7,0,14.65,4.13,3.72,22.3,21.19,30.58,15.71,1.94-1.28,3.35-5.18,4.23-10.2-2.46-.66-7.08-1.74-10.55-1.74-4.12,0-9.85,1.53-11.69,2.06ZM23.8,6.14c.15-.76.52-1.45,1.07-2,.55-.55,1.24-.92,2-1.07.76-.15,1.54-.07,2.26.22.71.3,1.32.8,1.75,1.44.43.64.66,1.4.66,2.17,0,1.04-.41,2.03-1.15,2.76-.73.73-1.73,1.14-2.76,1.15-.77,0-1.53-.23-2.17-.66-.64-.43-1.14-1.04-1.44-1.75-.3-.71-.37-1.5-.22-2.26Z"/>
      <g>
        <path class="cls-2" d="M31.12,23.75c-.06.28-.06.58,0,.86.23,1.13.82,2.2,1.79,3.02.71.6,2.33,2.05,4.36,3.62.65.5,1.59.09,1.66-.73.34-4.17.39-8.64.15-12.82-.05-.81-.98-1.23-1.62-.74-2.12,1.62-3.81,3.14-4.54,3.76-.97.82-1.56,1.89-1.79,3.02Z"/>
        <g>
          <path class="cls-2" d="M65.97,34.99l-1.72-4.92h-10.41l-1.72,4.92h-3.11l8.36-22.28h3.37l8.33,22.28h-3.11ZM54.73,27.59h8.63l-4.31-12.17-4.31,12.17Z"/>
          <path class="cls-2" d="M78.64,35.4c-4.58,0-7.66-3.44-7.66-8.57,0-2.42.76-4.6,2.15-6.13,1.44-1.59,3.45-2.43,5.81-2.43,2.61,0,4.89,1.34,6.12,3.58l-2.36.86c-.8-1.38-2.27-2.19-3.96-2.19-2.28,0-4.94,1.65-4.94,6.28,0,4.39,2.48,6.35,4.94,6.35,1.68,0,3.18-.81,4.02-2.16l2.36.86c-1.33,2.19-3.8,3.55-6.49,3.55Z"/>
          <path class="cls-2" d="M95.47,35.4c-4.58,0-7.66-3.44-7.66-8.57,0-2.42.76-4.6,2.15-6.13,1.44-1.59,3.45-2.43,5.81-2.43,2.61,0,4.89,1.34,6.12,3.58l-2.36.86c-.8-1.38-2.27-2.19-3.96-2.19-2.28,0-4.94,1.65-4.94,6.28,0,4.39,2.48,6.35,4.94,6.35,1.68,0,3.18-.81,4.02-2.16l2.36.86c-1.33,2.19-3.8,3.55-6.49,3.55Z"/>
          <path class="cls-2" d="M112.71,35.4c-2.47,0-4.53-.86-5.97-2.48-1.37-1.54-2.09-3.66-2.09-6.12,0-5.02,3.29-8.53,7.99-8.53,2.16,0,4.04.78,5.41,2.26,1.59,1.71,2.41,4.22,2.25,6.89h-12.87v.13c.06,1.9.72,3.43,1.9,4.41.91.76,2.14,1.19,3.37,1.19,1.76,0,3.09-.55,3.95-1.63l2.49.74c-1.31,2-3.65,3.14-6.44,3.14ZM112.64,20.45c-3,0-4.93,1.8-5.17,4.82v.13s10.07,0,10.07,0v-.12c-.04-2.34-1.76-4.83-4.9-4.83Z"/>
          <path class="cls-2" d="M129.44,35.4c-1.5,0-2.92-.35-4.11-1-1.27-.7-2.21-1.73-2.73-2.98l2.49-.92c.59,2.03,2.63,2.76,4.36,2.76,2.54,0,4.06-1.33,4.06-2.61,0-2.17-2.26-2.63-4.66-3.12-2.92-.6-5.95-1.21-5.95-4.76,0-1.71,1.06-2.76,1.95-3.35,1.15-.75,2.74-1.18,4.36-1.18,2.24,0,4.99.85,6.1,3.21l-2.43.89c-.69-1.44-2.5-1.95-3.87-1.95-1.73,0-3.49.8-3.49,2.34,0,1.84,2.09,2.24,4.29,2.66,2.96.56,6.31,1.2,6.31,5.15,0,1.82-1.11,2.95-2.05,3.58-1.22.82-2.9,1.28-4.63,1.28Z"/>
          <path class="cls-2" d="M145.3,35.4c-1.5,0-2.92-.35-4.11-1-1.27-.7-2.21-1.73-2.73-2.98l2.49-.92c.59,2.03,2.63,2.76,4.36,2.76,2.54,0,4.06-1.33,4.06-2.61,0-2.17-2.26-2.63-4.66-3.12-2.92-.6-5.95-1.21-5.95-4.76,0-1.71,1.06-2.76,1.95-3.35,1.15-.75,2.74-1.18,4.36-1.18,2.24,0,4.99.85,6.1,3.21l-2.43.89c-.69-1.44-2.5-1.95-3.87-1.95-1.73,0-3.49.8-3.49,2.34,0,1.84,2.09,2.24,4.29,2.66,2.96.56,6.31,1.2,6.31,5.15,0,1.82-1.11,2.95-2.05,3.58-1.22.82-2.9,1.28-4.63,1.28Z"/>
          <polygon class="cls-2" points="155.79 34.99 155.79 12.74 158.72 12.74 158.72 32.51 170.8 32.51 170.8 34.99 155.79 34.99"/>
          <path class="cls-2" d="M174.58,34.99v-14.44h-2.32v-2.01h4.91v16.46h-2.59ZM175.87,15.13c-1.08,0-1.97-.9-1.97-2s.88-1.97,1.97-1.97,2,.88,2,1.97-.9,2-2,2Z"/>
          <path class="cls-2" d="M187.02,35.4c-1.56,0-2.98-.44-3.99-1.23-1.08-.85-1.65-2.04-1.65-3.46,0-3.77,4.1-4.97,11.17-5.77h.1s0-.12,0-.12c.06-1.58-.29-2.76-1.02-3.52-.65-.68-1.62-1.02-2.88-1.02-1.99,0-3.36.93-3.79,2.56l-2.48-.74c.9-2.37,3.28-3.84,6.24-3.84,4.53,0,6.48,1.99,6.51,6.65l.03,3.91c.03,2.35.2,4.32.55,6.17h-2.36l-.73-2.47-.14.24c-1.06,1.77-2.89,2.63-5.59,2.63ZM192.76,26.95c-5.38.57-8.49,1.35-8.49,3.69,0,1.67,1.32,2.75,3.35,2.75,4.59,0,5.27-3.3,5.27-5.27v-1.18h-.13Z"/>
          <path class="cls-2" d="M201.65,34.99v-14.44h-2.32v-2.01h4.91v16.46h-2.59ZM202.94,15.13c-1.08,0-1.97-.9-1.97-2s.88-1.97,1.97-1.97,2,.88,2,1.97-.9,2-2,2Z"/>
          <path class="cls-2" d="M215.09,35.4c-1.5,0-2.92-.35-4.11-1-1.27-.7-2.21-1.73-2.73-2.98l2.49-.92c.59,2.03,2.63,2.76,4.36,2.76,2.54,0,4.06-1.33,4.06-2.61,0-2.17-2.26-2.63-4.66-3.12-2.92-.6-5.95-1.21-5.95-4.76,0-1.71,1.06-2.76,1.95-3.35,1.15-.75,2.74-1.18,4.36-1.18,2.24,0,4.99.85,6.1,3.21l-2.43.89c-.69-1.44-2.5-1.95-3.87-1.95-1.73,0-3.49.8-3.49,2.34,0,1.84,2.09,2.24,4.29,2.66,2.96.56,6.31,1.2,6.31,5.15,0,1.82-1.11,2.95-2.05,3.58-1.22.82-2.9,1.28-4.63,1.28Z"/>
          <path class="cls-2" d="M232.2,35.4c-2.01,0-3.96-.75-5.36-2.05-1.65-1.54-2.53-3.79-2.53-6.51s.87-4.97,2.53-6.51c1.4-1.3,3.35-2.05,5.36-2.05s3.96.73,5.38,2.05c1.65,1.54,2.52,3.79,2.52,6.51s-.87,4.98-2.52,6.51c-1.42,1.32-3.33,2.05-5.38,2.05ZM232.2,20.52c-3.51,0-5.1,3.27-5.1,6.32s1.6,6.32,5.1,6.32c2.54,0,5.1-1.95,5.1-6.32s-2.56-6.32-5.1-6.32Z"/>
          <path class="cls-2" d="M254.88,34.99v-9.61c0-2.56-.46-4.94-3.79-4.94-2.88,0-4.53,2.04-4.53,5.61v8.94h-2.59v-16.46h1.88l.79,2.7.14-.24c1.08-1.82,2.86-2.74,5.28-2.74,3.58,0,5.4,2.11,5.4,6.28v10.45h-2.59Z"/>
        </g>
      </g>
    </g>
  </g>
</svg>