<?xml version="1.0" encoding="UTF-8"?>
<svg id="Layer_1" data-name="Layer 1" xmlns="http://www.w3.org/2000/svg" xmlns:xlink="http://www.w3.org/1999/xlink" viewBox="0 0 80 80">
  <defs>
    <style>
      .cls-1 {
        fill: url(#linear-gradient-8);
      }

      .cls-2 {
        fill: url(#linear-gradient-7);
      }

      .cls-3 {
        fill: url(#linear-gradient-5);
      }

      .cls-4 {
        fill: url(#linear-gradient-6);
      }

      .cls-5 {
        fill: url(#linear-gradient-9);
      }

      .cls-6 {
        fill: url(#linear-gradient-4);
      }

      .cls-7 {
        fill: url(#linear-gradient-3);
      }

      .cls-8 {
        fill: url(#linear-gradient-2);
      }

      .cls-9 {
        fill: url(#linear-gradient);
      }

      .cls-10 {
        fill: url(#linear-gradient-10);
      }
    </style>
    <linearGradient id="linear-gradient" x1="11.01" y1="22.26" x2="63.68" y2="22.26" gradientUnits="userSpaceOnUse">
      <stop offset="0" stop-color="#3a89cc"/>
      <stop offset=".28" stop-color="#31a2dc"/>
      <stop offset=".63" stop-color="#29bbec"/>
      <stop offset=".85" stop-color="#26c5f3"/>
    </linearGradient>
    <linearGradient id="linear-gradient-2" y1="29.09" x2="63.68" y2="29.09" xlink:href="#linear-gradient"/>
    <linearGradient id="linear-gradient-3" y1="35.29" x2="63.68" y2="35.29" xlink:href="#linear-gradient"/>
    <linearGradient id="linear-gradient-4" y1="43.12" x2="63.68" y2="43.12" xlink:href="#linear-gradient"/>
    <linearGradient id="linear-gradient-5" y1="40" x2="63.68" y2="40" xlink:href="#linear-gradient"/>
    <linearGradient id="linear-gradient-6" y1="8.8" x2="63.68" y2="8.8" xlink:href="#linear-gradient"/>
    <linearGradient id="linear-gradient-7" y1="8.8" x2="63.68" y2="8.8" xlink:href="#linear-gradient"/>
    <linearGradient id="linear-gradient-8" y1="54.69" x2="63.68" y2="54.69" xlink:href="#linear-gradient"/>
    <linearGradient id="linear-gradient-9" y1="54.69" x2="63.68" y2="54.69" xlink:href="#linear-gradient"/>
    <linearGradient id="linear-gradient-10" y1="71.7" x2="63.68" y2="71.7" xlink:href="#linear-gradient"/>
  </defs>
  <g id="g741">
    <g id="g743">
      <g id="path745">
        <path class="cls-9" d="M29.31,23.26c-.55,0-1-.45-1-1s.45-1,1-1h33.9c.55,0,1,.45,1,1s-.45,1-1,1H29.31Z"/>
      </g>
    </g>
    <g id="g747">
      <g id="path749">
        <path class="cls-8" d="M17.75,30.1c-.56,0-1.01-.45-1.01-1.01s.45-1.01,1.01-1.01h45.77c.56,0,1.01.45,1.01,1.01s-.45,1.01-1.01,1.01H17.75Z"/>
      </g>
    </g>
    <g id="g751">
      <g id="path753">
        <path class="cls-7" d="M17.76,36.31c-.56,0-1.02-.46-1.02-1.02s.46-1.02,1.02-1.02h45.94c.56,0,1.02.46,1.02,1.02s-.46,1.02-1.02,1.02H17.76Z"/>
      </g>
    </g>
    <g id="g755">
      <g id="path757">
        <path class="cls-6" d="M18.06,44.11c-.55,0-1-.45-1-1s.45-1,1-1h15.66c.55,0,1,.45,1,1s-.45,1-1,1h-15.66Z"/>
      </g>
    </g>
    <g id="g759">
      <g id="g761">
        <g id="g767">
          <g id="path769">
            <path class="cls-3" d="M16.77,80c-3.44,0-6.24-2.8-6.24-6.24V6.24c0-3.44,2.8-6.24,6.24-6.24h35.54c1.33,0,2.58.52,3.51,1.46l12.19,12.19c.94.94,1.46,2.18,1.46,3.51v56.6c0,3.44-2.8,6.24-6.24,6.24H16.77ZM16.77,2c-2.34,0-4.24,1.9-4.24,4.24v67.52c0,2.34,1.9,4.24,4.24,4.24h46.46c2.34,0,4.24-1.9,4.24-4.24V17.16c0-.79-.31-1.54-.87-2.1l-12.19-12.19c-.56-.56-1.31-.87-2.1-.87H16.77Z"/>
          </g>
        </g>
        <g id="g771">
          <g id="path773">
            <path class="cls-4" d="M58.61,16.59c-3.32,0-6.02-2.7-6.02-6.02V1.98c0-.53.43-.96.96-.96s.96.43.96.96v8.6c0,2.25,1.83,4.09,4.09,4.09h8.6c.53,0,.96.43.96.96s-.43.96-.96.96h-8.6Z"/>
            <path class="cls-2" d="M58.61,16.54c-3.29,0-5.97-2.68-5.97-5.97V1.98c0-.5.41-.91.91-.91s.91.41.91.91v8.6c0,2.28,1.86,4.14,4.14,4.14h8.6c.5,0,.91.41.91.91s-.41.91-.91.91h-8.6Z"/>
          </g>
        </g>
        <g id="g775">
          <g id="path777">
            <path class="cls-1" d="M52.11,67.26c-1.22,0-2.29-.73-2.73-1.87-.14-.36-.42-.5-.58-.55-.09-.03-.19-.05-.29-.05-.18,0-.34.05-.5.15-.48.31-1.03.47-1.59.47-.62,0-1.21-.19-1.72-.56-.98-.71-1.42-1.94-1.1-3.11.1-.37-.05-.65-.15-.78-.1-.13-.32-.36-.7-.38-1.21-.07-2.24-.86-2.62-2.01-.38-1.16,0-2.4.94-3.17.3-.24.34-.55.34-.72s-.04-.48-.34-.72c-.94-.77-1.31-2.01-.94-3.17.38-1.16,1.4-1.95,2.62-2.01.38-.02.6-.25.7-.38.1-.13.24-.41.15-.78-.31-1.18.12-2.4,1.11-3.11.51-.37,1.1-.56,1.71-.56.56,0,1.11.16,1.59.47.15.1.32.15.5.15.1,0,.2-.02.29-.05.16-.05.44-.19.58-.55.44-1.13,1.51-1.87,2.73-1.87s2.29.73,2.73,1.87c.14.36.42.5.57.55.09.03.19.05.29.05.18,0,.34-.05.5-.15.48-.31,1.03-.47,1.59-.47.62,0,1.21.19,1.72.56.98.71,1.42,1.94,1.1,3.11-.1.37.05.65.15.78.1.13.32.36.7.38,1.21.07,2.24.86,2.62,2.01.38,1.16,0,2.4-.94,3.17-.3.24-.34.55-.34.72s.04.48.34.72c.94.77,1.31,2.01.94,3.17-.38,1.16-1.4,1.95-2.62,2.01-.38.02-.6.25-.7.38s-.24.41-.15.78c.31,1.18-.12,2.4-1.11,3.11-.51.37-1.1.56-1.72.56-.56,0-1.11-.16-1.59-.47-.15-.1-.32-.15-.5-.15-.13,0-.24.03-.29.05-.16.05-.44.19-.57.55-.44,1.13-1.51,1.87-2.73,1.87ZM48.52,62.81c.31,0,.61.05.91.14.84.27,1.5.9,1.82,1.72.21.55.71.59.86.59.4,0,.72-.22.86-.59.32-.82.98-1.45,1.82-1.72.3-.1.6-.14.91-.14.56,0,1.11.16,1.58.47.16.1.33.16.5.16.26,0,.45-.12.55-.18.12-.09.5-.41.35-.98-.23-.85-.06-1.75.46-2.47.52-.71,1.32-1.15,2.2-1.2.59-.03.78-.5.83-.64.05-.14.16-.63-.3-1-.68-.56-1.08-1.38-1.08-2.27s.39-1.71,1.08-2.27c.46-.37.34-.86.3-1-.05-.14-.24-.6-.83-.64-.88-.05-1.68-.49-2.2-1.2-.52-.72-.69-1.61-.46-2.47.15-.57-.23-.9-.35-.99-.09-.07-.29-.18-.55-.18-.17,0-.34.05-.5.16-.47.31-1.02.47-1.58.47-.31,0-.61-.05-.91-.14-.84-.27-1.5-.9-1.82-1.72-.14-.37-.46-.59-.86-.59-.15,0-.65.04-.86.59-.32.82-.98,1.45-1.82,1.72-.29.1-.6.14-.91.14-.56,0-1.11-.16-1.58-.47-.16-.1-.33-.16-.5-.16-.25,0-.45.12-.55.18-.12.09-.5.42-.35.98.23.85.06,1.75-.46,2.47-.52.71-1.32,1.15-2.2,1.2-.4.02-.71.26-.83.64-.05.14-.16.63.3,1,.69.56,1.08,1.38,1.08,2.27s-.39,1.71-1.08,2.27c-.46.37-.34.86-.3,1,.12.38.43.62.83.64.88.05,1.68.48,2.2,1.2.52.71.69,1.61.46,2.47-.15.57.23.9.35.98.09.07.29.18.55.18.17,0,.34-.05.5-.16.48-.31,1.02-.47,1.58-.47Z"/>
          </g>
        </g>
        <g id="g779">
          <g id="path781">
            <path class="cls-5" d="M52.11,61.06c-3.51,0-6.37-2.86-6.37-6.37s2.86-6.37,6.37-6.37,6.37,2.86,6.37,6.37-2.86,6.37-6.37,6.37ZM52.11,50.32c-2.41,0-4.37,1.96-4.37,4.37s1.96,4.37,4.37,4.37,4.37-1.96,4.37-4.37-1.96-4.37-4.37-4.37Z"/>
          </g>
        </g>
        <g id="g783">
          <g id="path785">
            <path class="cls-10" d="M47.37,74.57c-.43,0-.86-.12-1.24-.34-.77-.45-1.23-1.24-1.23-2.14v-2.27c0-.55.45-1,1-1s1,.45,1,1v2.27c0,.17.08.32.23.41.07.04.16.07.24.07s.16-.02.23-.06l3.27-1.88c.37-.21.8-.33,1.23-.33s.86.11,1.23.33l3.27,1.88c.08.04.15.06.23.06s.16-.02.24-.07c.15-.09.24-.24.24-.41v-2.24c0-.55.45-1,1-1s1,.45,1,1v2.24c0,.89-.46,1.69-1.23,2.14-.38.22-.81.34-1.24.34s-.85-.11-1.23-.33l-3.27-1.88c-.07-.04-.15-.06-.23-.06s-.16.02-.23.06l-3.27,1.88c-.38.22-.8.33-1.23.33Z"/>
          </g>
        </g>
      </g>
    </g>
  </g>
</svg>