<?xml version="1.0" encoding="UTF-8"?>
<svg id="Layer_1" data-name="Layer 1" xmlns="http://www.w3.org/2000/svg" xmlns:xlink="http://www.w3.org/1999/xlink" viewBox="0 0 32 32">
  <defs>
    <style>
      .cls-1 {
        fill: url(#linear-gradient-3);
      }

      .cls-2 {
        fill: url(#linear-gradient-2);
      }

      .cls-3 {
        fill: url(#linear-gradient);
      }
    </style>
    <linearGradient id="linear-gradient" x1="2.2" y1="16" x2="28.35" y2="16" gradientUnits="userSpaceOnUse">
      <stop offset="0" stop-color="#3a89cc"/>
      <stop offset=".28" stop-color="#31a2dc"/>
      <stop offset=".63" stop-color="#29bbec"/>
      <stop offset=".85" stop-color="#26c5f3"/>
    </linearGradient>
    <linearGradient id="linear-gradient-2" y1="12.36" y2="12.36" xlink:href="#linear-gradient"/>
    <linearGradient id="linear-gradient-3" y1="12.36" y2="12.36" xlink:href="#linear-gradient"/>
  </defs>
  <path class="cls-3" d="M28.82,32c-.85,0-1.65-.33-2.25-.93l-5.33-5.33c-.47.39-1.02.58-1.59.58-.15,0-.32-.02-.47-.05-.81-.16-1.49-.7-1.81-1.46l-.31-.73c-1.47.58-3.01.87-4.58.87-3.34,0-6.47-1.3-8.83-3.65-4.87-4.87-4.87-12.79,0-17.65C6.01,1.3,9.14,0,12.48,0s6.47,1.3,8.83,3.65c3.53,3.53,4.61,8.77,2.78,13.4l.73.31c.76.32,1.3,1,1.46,1.81.14.74-.06,1.49-.54,2.06l5.33,5.33c1.24,1.24,1.24,3.26,0,4.51-.6.6-1.4.93-2.25.93ZM28.03,29.6c.21.21.49.33.79.33s.58-.12.79-.33c.44-.44.44-1.14,0-1.58l-5.32-5.33-1.58,1.58,5.32,5.32ZM19.27,24c.06.13.17.22.3.24.02,0,.03,0,.04,0,.17,0,.26-.04.33-.11l4.19-4.19c.1-.1.13-.23.11-.37-.03-.18-.15-.26-.25-.3l-.84-.36c-.53.88-1.15,1.69-1.86,2.39s-1.51,1.33-2.39,1.86l.36.84ZM12.48,2.07c-2.79,0-5.4,1.08-7.37,3.04-1.96,1.96-3.05,4.57-3.05,7.36,0,2.79,1.08,5.41,3.05,7.37,1.97,1.97,4.58,3.05,7.37,3.05s5.4-1.08,7.36-3.05c1.97-1.96,3.05-4.58,3.05-7.36s-1.08-5.4-3.05-7.37c-1.96-1.96-4.58-3.04-7.37-3.04Z"/>
  <path class="cls-2" d="M9.72,18.07c-.36,0-.7-.14-.95-.4l-3.4-3.4c-.25-.25-.39-.59-.39-.95s.14-.7.39-.96c.25-.25.59-.39.95-.39s.7.14.95.39l2.45,2.45,7.76-7.76c.25-.25.59-.39.95-.39s.7.14.95.39c.25.25.39.59.39.95s-.14.7-.39.95l-8.71,8.71c-.26.26-.6.4-.95.4Z"/>
  <path class="cls-1" d="M9.72,17.79c-.28,0-.55-.11-.75-.32l-3.4-3.4c-.2-.2-.31-.47-.31-.75s.11-.55.31-.75c.2-.2.47-.31.75-.31s.55.11.75.31l2.65,2.65,7.96-7.96c.2-.2.47-.31.75-.31s.55.11.75.31c.2.2.31.47.31.75s-.11.55-.31.75l-8.71,8.71c-.2.2-.47.32-.75.32Z"/>
</svg>