<?xml version="1.0" encoding="UTF-8"?>
<svg id="Layer_1" data-name="Layer 1" xmlns="http://www.w3.org/2000/svg" xmlns:xlink="http://www.w3.org/1999/xlink" viewBox="0 0 80 80">
  <defs>
    <style>
      .cls-1 {
        fill: url(#linear-gradient-7);
      }

      .cls-2 {
        fill: url(#linear-gradient-5);
      }

      .cls-3 {
        fill: url(#linear-gradient-6);
      }

      .cls-4 {
        fill: url(#linear-gradient-4);
      }

      .cls-5 {
        fill: url(#linear-gradient-3);
      }

      .cls-6 {
        fill: url(#linear-gradient-2);
      }

      .cls-7 {
        fill: url(#linear-gradient);
      }
    </style>
    <linearGradient id="linear-gradient" x1="11.99" y1="39.8" x2="59.8" y2="40.18" gradientUnits="userSpaceOnUse">
      <stop offset="0" stop-color="#3a89cc"/>
      <stop offset=".28" stop-color="#31a2dc"/>
      <stop offset=".63" stop-color="#29bbec"/>
      <stop offset=".85" stop-color="#26c5f3"/>
    </linearGradient>
    <linearGradient id="linear-gradient-2" x1="12.15" y1="19.74" x2="59.96" y2="20.11" xlink:href="#linear-gradient"/>
    <linearGradient id="linear-gradient-3" x1="12.15" y1="19.74" x2="59.96" y2="20.11" xlink:href="#linear-gradient"/>
    <linearGradient id="linear-gradient-4" x1="12.15" y1="19.66" x2="59.96" y2="20.03" xlink:href="#linear-gradient"/>
    <linearGradient id="linear-gradient-5" x1="12.15" y1="19.66" x2="59.96" y2="20.03" xlink:href="#linear-gradient"/>
    <linearGradient id="linear-gradient-6" x1="12.08" y1="27.99" x2="59.89" y2="28.37" xlink:href="#linear-gradient"/>
    <linearGradient id="linear-gradient-7" x1="12.08" y1="27.99" x2="59.89" y2="28.37" xlink:href="#linear-gradient"/>
  </defs>
  <g id="_22_Experience" data-name="22 Experience">
    <g>
      <path class="cls-7" d="M46.32,80c-.52,0-1.04-.13-1.51-.38l-4.21-2.21c-.18-.1-.39-.15-.6-.15s-.42.05-.6.15l-4.2,2.21c-.47.25-.99.38-1.52.38-.69,0-1.34-.22-1.91-.62-1.01-.73-1.5-1.95-1.29-3.17l.8-4.68c.07-.42-.07-.85-.37-1.15l-3.4-3.32c-.89-.87-1.21-2.14-.82-3.33.38-1.18,1.39-2.03,2.62-2.21l4.7-.69c.42-.06.79-.33.97-.71l.89-1.81-9.97.07c.16.83-.19,1.67-.91,2.19-.41.3-.89.46-1.4.46-.38,0-.77-.1-1.11-.28l-2.6-1.37c-.06-.03-.13-.05-.2-.05s-.14.02-.2.05l-2.6,1.36c-.34.18-.73.28-1.11.28-.5,0-.98-.16-1.4-.46-.74-.54-1.1-1.43-.95-2.33l.5-2.89c.02-.14-.02-.28-.12-.38l-2.1-2.05c-.65-.64-.88-1.57-.6-2.44.28-.87,1.02-1.49,1.92-1.62l2.91-.42c.14-.02.26-.11.32-.24l1.3-2.63c.4-.82,1.22-1.33,2.13-1.33.65,0,1.29.28,1.74.76,2.6-3.99,7.06-6.38,11.85-6.38h1.01c.29,0,.56-.11.76-.32.2-.2.32-.47.32-.76v-3.95c-3.76-1.61-6.4-5.19-6.84-9.29l-.27.04c-1.86,0-3.37-1.51-3.37-3.37,0-.89.34-1.73.97-2.36l-.04-4.46c0-7.82,6.36-14.18,14.18-14.18s14.18,6.36,14.18,14.18v4.56c.59.53.93,1.37.93,2.26,0,1.86-1.51,3.37-3.37,3.37h-.32c-.39,4.05-3.02,7.63-6.81,9.29l.03,3.9c0,.59.48,1.08,1.08,1.08h1.01c4.79,0,9.24,2.38,11.93,6.38.37-.49,1-.76,1.65-.76.91,0,1.73.51,2.14,1.32l1.3,2.63c.06.13.18.21.32.23l2.91.42c.9.13,1.64.75,1.92,1.62.28.87.05,1.8-.6,2.44l-2.1,2.05c-.1.1-.15.24-.12.38l.5,2.89c.16.9-.21,1.79-.95,2.33-.41.3-.89.46-1.4.46-.38,0-.77-.1-1.11-.28l-2.6-1.37c-.06-.03-.13-.05-.2-.05s-.14.02-.2.05l-2.6,1.36c-.34.18-.73.27-1.11.27-.5,0-.98-.16-1.4-.46-.71-.52-1.08-1.38-.96-2.25l-9.96.06.94,1.73c.19.38.55.65.97.71l4.71.69c1.23.18,2.24,1.03,2.62,2.21.38,1.18.07,2.46-.82,3.33l-3.4,3.32c-.31.3-.45.73-.37,1.15l.8,4.68c.21,1.23-.28,2.44-1.29,3.18-.56.41-1.22.62-1.91.62ZM40,75.31c.52,0,1.05.13,1.51.37l4.21,2.21c.19.1.4.15.61.15.27,0,.53-.09.76-.25.41-.3.6-.77.52-1.27l-.8-4.68c-.18-1.05.17-2.13.93-2.87l3.4-3.32c.36-.35.48-.85.33-1.33-.16-.48-.55-.81-1.04-.88l-4.71-.69c-1.06-.15-1.97-.82-2.44-1.78l-2.1-4.26c-.22-.45-.66-.72-1.16-.72-.5,0-.94.27-1.16.72l-2.1,4.26c-.47.96-1.39,1.62-2.45,1.78l-4.7.69c-.5.07-.89.4-1.04.88-.16.48-.03.98.33,1.33l3.4,3.32c.77.74,1.12,1.82.93,2.87l-.8,4.68c-.09.5.11.97.51,1.27.23.16.49.25.76.25.21,0,.41-.05.61-.15l4.2-2.21c.47-.24.99-.37,1.51-.37ZM60.3,57.4c.38,0,.77.09,1.11.27l2.6,1.37c.07.04.14.05.2.05.12,0,.21-.05.25-.09.08-.06.21-.19.17-.42l-.5-2.89c-.13-.77.12-1.56.69-2.11l2.1-2.05c.17-.17.13-.36.11-.44-.03-.1-.12-.26-.35-.29l-2.91-.42c-.78-.11-1.44-.6-1.79-1.3l-1.3-2.63c-.1-.2-.26-.24-.38-.24-.1,0-.28.03-.38.24l-1.3,2.63c-.35.7-1.02,1.19-1.79,1.3l-2.91.42c-.22.03-.31.18-.35.29-.02.07-.06.27.11.44l2.1,2.05c.56.55.82,1.33.68,2.11l-.5,2.89c-.04.23.1.37.17.42.05.04.14.08.25.08.07,0,.13-.02.2-.05l2.6-1.36c.34-.18.72-.27,1.11-.27ZM19.7,57.4c.38,0,.76.09,1.11.27l2.6,1.37c.07.04.13.05.2.05.11,0,.21-.05.25-.09.08-.06.21-.19.17-.42l-.5-2.89c-.13-.77.12-1.56.68-2.11l2.1-2.05c.16-.16.14-.34.11-.44-.03-.09-.12-.26-.35-.29l-2.91-.42c-.78-.11-1.44-.6-1.79-1.3l-1.3-2.63c-.1-.21-.28-.24-.38-.24s-.28.03-.38.24l-1.3,2.63c-.35.7-1.02,1.19-1.79,1.3l-2.91.42c-.23.03-.31.2-.34.29-.03.09-.06.28.11.44l2.1,2.05c.56.54.82,1.33.68,2.11l-.5,2.89c-.04.24.1.37.17.42.04.03.14.09.25.09.07,0,.13-.02.2-.05l2.6-1.36c.34-.18.72-.27,1.11-.27ZM30.94,40.79c-3.57.7-6.68,2.95-8.49,6.19l.68,1.23c.06.13.18.22.32.24l2.91.42c.9.13,1.64.75,1.92,1.62.28.87.05,1.8-.6,2.44l-2.1,2.05c-.1.1-.15.24-.12.38l.19,1.12,11.19-.04.25-.57c.55-1.12,1.67-1.81,2.91-1.81h0c1.24,0,2.36.69,2.91,1.81l.3.6,11.2-.03.14-1.08c.02-.14-.02-.28-.12-.38l-2.1-2.05c-.65-.64-.88-1.57-.6-2.44.28-.87,1.02-1.49,1.92-1.62l2.91-.42c.14-.02.26-.11.32-.23l.68-1.38c-1.83-3.13-4.94-5.35-8.54-6.02-1.89,3.16-5.28,5.05-9.01,5.05s-7.12-1.9-9.06-5.08ZM33.08,40.6c1.67,2.04,4.24,3.31,6.92,3.31s5.25-1.27,6.88-3.39c-.22.07-.58.07-.61.07,0,0-.56,0-.56,0-1.67,0-3.03-1.36-3.03-3.03v-3.34c-.88.28-1.78.39-2.69.39s-1.81-.11-2.75-.35l.06,3.29c0,1.67-1.36,3.03-3.03,3.03h-.7c-.11,0-.23,0-.5,0ZM33.51,13.49c-1.71,0-3.11,1.39-3.11,3.11v6.49c0,5.29,4.3,9.59,9.59,9.59s9.59-4.3,9.59-9.59v-6.49c0-1.71-1.39-3.11-3.11-3.11h-12.97ZM51.55,22.47l.19-.05c.78,0,1.42-.64,1.42-1.42s-.64-1.42-1.42-1.42h-.19v2.89ZM28.26,19.59c-.78,0-1.42.64-1.42,1.42s.64,1.42,1.42,1.42h.24l-.05-2.89-.19.05ZM40,1.95c-6.74,0-12.23,5.49-12.23,12.23v3.55c.18-.09.38-.1.53-.1h.22s-.06-1.04-.06-1.04c0-2.79,2.27-5.06,5.06-5.06h12.97c2.79,0,5.06,2.27,5.06,5.06v1.09l.16-.05c.16,0,.35,0,.59.05l-.06-3.5c0-6.74-5.49-12.23-12.23-12.23Z"/>
      <path class="cls-6" d="M35.05,21.29c-.54,0-.98-.44-.98-.98v-.8c0-.54.44-.98.98-.98s.97.44.97.98v.8c0,.54-.44.98-.97.98Z"/>
      <path class="cls-5" d="M35.05,21.24c-.51,0-.92-.42-.92-.93v-.8c0-.51.41-.93.92-.93s.92.42.92.93v.8c0,.51-.41.93-.92.93Z"/>
      <path class="cls-4" d="M44.95,21.29c-.54,0-.97-.44-.97-.98v-.8c0-.54.44-.98.97-.98s.97.44.97.98v.8c0,.54-.44.98-.97.98Z"/>
      <path class="cls-2" d="M44.95,21.24c-.51,0-.92-.42-.92-.93v-.8c0-.51.41-.93.92-.93s.92.42.92.93v.8c0,.51-.41.93-.92.93Z"/>
      <path class="cls-3" d="M40,29.72c-1.21,0-2.34-.47-3.19-1.32-.18-.18-.29-.43-.29-.69s.1-.51.29-.69c.18-.18.43-.29.69-.29s.51.1.69.29c.48.48,1.13.75,1.81.75s1.34-.27,1.82-.76c.18-.18.43-.28.69-.28s.5.1.69.29c.18.18.29.43.29.69s-.1.51-.29.69c-.85.85-1.99,1.33-3.2,1.33h0Z"/>
      <path class="cls-1" d="M40,29.67c-1.2,0-2.32-.46-3.16-1.31-.18-.18-.27-.41-.27-.66s.1-.48.27-.65c.17-.17.41-.27.65-.27s.48.1.65.27c.49.49,1.15.76,1.85.76s1.36-.27,1.86-.77c.17-.17.41-.27.65-.27s.48.1.65.27c.36.36.36.95,0,1.31-.84.85-1.97,1.31-3.16,1.31h0Z"/>
    </g>
  </g>
</svg>