<?xml version="1.0" encoding="UTF-8"?>
<svg id="Layer_1" data-name="Layer 1" xmlns="http://www.w3.org/2000/svg" xmlns:xlink="http://www.w3.org/1999/xlink" viewBox="0 0 80 80">
  <defs>
    <style>
      .cls-1 {
        fill: url(#linear-gradient-2);
      }

      .cls-2 {
        fill: url(#linear-gradient);
      }
    </style>
    <linearGradient id="linear-gradient" x1="6.97" y1="62.57" x2="60.39" y2="62.94" gradientUnits="userSpaceOnUse">
      <stop offset="0" stop-color="#3a89cc"/>
      <stop offset=".28" stop-color="#31a2dc"/>
      <stop offset=".63" stop-color="#29bbec"/>
      <stop offset=".85" stop-color="#26c5f3"/>
    </linearGradient>
    <linearGradient id="linear-gradient-2" x1="7.24" y1="23.43" x2="60.66" y2="23.81" xlink:href="#linear-gradient"/>
  </defs>
  <g id="_13_Product_Quality" data-name="13 Product Quality">
    <g>
      <path class="cls-2" d="M7.75,80c-3.6,0-6.54-2.93-6.54-6.54v-17.57c0-3.6,2.93-6.54,6.54-6.54h5.84c2.93,0,5.52,1.97,6.29,4.8,1.92-2.88,4.96-5.01,8.24-5.87,1.16-.3,2.36-.45,3.59-.45,3.28,0,6.49,1.07,9.03,3.02.41-.05.9-.05,1.39-.05s.99,0,1.47.01h.19c.55,0,1.08.02,1.63.02.28,0,.83,0,.88,0,2.77,0,4.3,1.94,4.77,3.61,4.46-1.81,8.41-4.39,11.37-7.51.84-.88,1.96-1.37,3.14-1.37.77,0,1.53.22,2.2.62,1.88,1.15,2.6,3.5,1.68,5.47-6.91,14.78-19.12,20.26-28.15,22.25-3.59.79-7.58,1.21-11.54,1.21-3.62,0-7.08-.36-9.74-1-.24,3.29-3.1,5.9-6.44,5.9h-5.84ZM7.75,51.31c-2.53,0-4.58,2.06-4.58,4.58v17.57c0,2.53,2.06,4.58,4.58,4.58h5.84c2.53,0,4.58-2.06,4.58-4.58v-17.57c0-2.53-2.06-4.58-4.58-4.58h-5.84ZM31.73,49.78c-1.06,0-2.11.13-3.11.39-3.75.98-7.01,3.82-8.5,7.41v14.57c1.81.45,5.32.97,9.64.97,10.27,0,28.87-2.9,37.94-22.3.5-1.07.12-2.33-.88-2.94-.38-.23-.81-.36-1.24-.36-.64,0-1.25.27-1.72.75-3.28,3.45-7.66,6.27-12.67,8.15-.18,1.72-1.27,3.1-2.97,3.72-2.24.83-5.87,1.14-10.06,1.5-.83.07-2.58.23-2.58.23-.58,0-1.01-.36-1.06-.89-.05-.54.35-1.01.88-1.06.89-.08,1.74-.15,2.57-.22,4.23-.36,7.56-.65,9.56-1.39,1.58-.59,1.91-2.04,1.71-3.1-.23-1.21-1.21-2.44-2.89-2.44-.32,0-.61,0-.9,0-.52,0-1.04,0-1.55-.01h-.11c-.55,0-1.11-.02-1.66-.02s-1.13,0-1.71.03c-.26,0-.47-.07-.65-.22-2.23-1.8-5.09-2.79-8.03-2.79Z"/>
      <path class="cls-1" d="M45.88,47.51c-.28,0-.55-.12-.73-.34l-25.93-30.25c-.34-.4-.27-.93-.03-1.24L31.23.37c.19-.24.47-.37.77-.37h27.77c.3,0,.58.14.77.37l12.05,15.31c.3.38.26.97-.1,1.31l-25.86,30.18c-.22.22-.48.34-.75.34ZM45.93,43.91l10.06-26.71-20.2.07,10.14,26.64ZM48.69,41.91l21.07-24.73-11.69.08-9.37,24.64ZM43.16,41.86l-9.48-24.62-11.61.03,21.09,24.59ZM21.9,15.39l11.81-.08,4.65-13.42-5.89.07-10.57,13.44ZM35.73,15.38l20.36-.07-4.75-13.39-10.93.03-4.69,13.42ZM53.36,1.95l4.74,13.39,11.81-.03L59.27,1.92l-5.91.04Z"/>
    </g>
  </g>
</svg>