<?xml version="1.0" encoding="UTF-8"?>
<svg id="Object" xmlns="http://www.w3.org/2000/svg" viewBox="0 0 1638.38 1669.1" aria-hidden="true" focusable="false">
  <defs>
    <style>
      .note-1 {
        fill: #7b7b91;
      }

      .note-2 {
        fill: #d30d0d;
      }
    </style>
  </defs>
  <path class="note-1" d="M799.91,1055.23S15.33,1683.32.23,1668.86c-13.52-12.95,567.89-809.52,567.89-809.52,36.42-48.54,120.75-47.08,188.35,3.26,67.6,50.32,92.86,130.47,56.44,179.01-3.7,4.93-8.39,9.73-13.01,13.63Z"/>
  <path class="note-2" d="M1638.38,408.48L1147.03,0c-28.51,58.65-37.17,122.8-28.03,184.54L507.71,718.03c-189.6-91.07-364.32-104.49-444.19-18.94v.02s976.6,811.9,976.6,811.9l.02-.02c79.87-85.56,43.72-247.46-75.93-413.45l483.7-639.56c66.05.77,132.41-15.42,190.46-49.51Z"/>
</svg>