<?xml version="1.0" encoding="UTF-8"?>
<svg id="notification" xmlns="http://www.w3.org/2000/svg" viewBox="0 0 1814.28 1768.05" aria-hidden="true" focusable="false">
  <defs>
    <style>
      .warning-1 {
        fill: #d30d0d;
      }

      .warning-2 {
        fill: #faf5fc;
      }
    </style>
  </defs>
  <path class="warning-1" d="M1684.17,1256.95c59.71-128.11,89.49-272.41,80.84-423.41C1737.12,346.43,1319.9-25.91,832.9,1.41,346.53,29.83-26.38,448.06,1.46,934.16c27.75,484.49,442.61,856.66,926.43,832.81,2.38-.11,4.76-.24,7.14-.38,27.61-1.58,55.1-4.52,82.35-8.75,1.31-.2,2.62-.41,3.93-.61,1.84-.29,3.67-.59,5.51-.9,99.14-16.51,195.05-50.17,282.52-98.33l.56.14c.75-.42,1.5-.84,2.25-1.25l429.8,96.17c44.31,9.92,82.88-31.61,69.72-75.07l-127.49-421.04Z"/>
  <g>
    <path class="warning-2" d="M788.92,1037.2l-27.73-459.09c-5.19-89.44-7.8-153.66-7.8-192.64,0-53.03,12.56-94.4,37.69-124.11,25.13-29.71,58.2-44.57,99.22-44.57,49.68,0,82.89,19.02,99.66,57.03,16.75,38.02,25.13,92.82,25.13,164.37,0,42.17-2.04,84.98-6.07,128.42l-37.26,472.5c-4.05,56.23-12.71,99.36-25.99,129.4-13.3,30.04-35.24,45.04-65.86,45.04s-52.86-14.53-64.99-43.6c-12.14-29.07-20.8-73.32-26-132.74Z"/>
    <path class="warning-2" d="M885,1551.24c-30.6,0-57.32-9.91-80.14-29.73-22.83-19.81-34.24-47.52-34.24-83.15,0-31.1,10.91-57.57,32.73-79.39,21.82-21.82,48.53-32.73,80.14-32.73s58.57,10.91,80.89,32.73c22.31,21.82,33.49,48.29,33.49,79.39,0,35.12-11.28,62.71-33.86,82.78-22.57,20.05-48.91,30.1-79.01,30.1Z"/>
  </g>
</svg>
